PathFileType	4	(X/Y/Z)	T1_P2_NoVision_NoMovement_2_0-733.trc
DataRate	CameraRate	NumFrames	NumMarkers	Units	OrigDataRate	OrigDataStartFrame	OrigNumFrames
60	60	7	27	m	60	183	733
Frame#	Time	RHip			RKnee			RAnkle			RBigToe			RSmallToe			RHeel			LHip			LKnee			LAnkle			LBigToe			LSmallToe			LHeel			Neck			Head			Nose			RShoulder			RElbow			RWrist			RThumb			RIndex			RPinky			LShoulder			LElbow			LWrist			LThumb			LIndex			LPinky		
		X1	Y1	Z1	X2	Y2	Z2	X3	Y3	Z3	X4	Y4	Z4	X5	Y5	Z5	X6	Y6	Z6	X7	Y7	Z7	X8	Y8	Z8	X9	Y9	Z9	X10	Y10	Z10	X11	Y11	Z11	X12	Y12	Z12	X13	Y13	Z13	X14	Y14	Z14	X15	Y15	Z15	X16	Y16	Z16	X17	Y17	Z17	X18	Y18	Z18	X19	Y19	Z19	X20	Y20	Z20	X21	Y21	Z21	X22	Y22	Z22	X23	Y23	Z23	X24	Y24	Z24	X25	Y25	Z25	X26	Y26	Z26	X27	Y27	Z27
184	3.066666666666667	464.9929377775465	3608.6184896869563	522.9854227608736	874.5738180196926	3676.562112226235	551.7255816261612	1251.9547316652543	3751.987253981717	619.7873955906678	1318.6144357831113	3611.9583467591933	558.68454390798	1309.569212608033	3667.187646422471	519.168152023454	1281.3752061373987	3732.6891670260284	621.8471363610477	475.429007940332	3496.631884722631	723.1037335359107	876.8830656430367	3535.3854215449323	736.2587597040518	1243.0200287673822	3609.7201660408764	726.2275794546499	1299.5654723551254	3472.827819889427	662.8032998941783	1270.500227258129	3441.3905667123136	702.8240156300053	1267.569753930872	3606.217554139132	700.0717855770674	-108.31627580954697	3540.4213091971205	642.7589825853154	-366.8224183067085	3482.5178427018855	622.7457781210129	-222.33987574246632	3431.11714609591	585.4071209773837	-31.977918830173294	3622.61497030882	513.1487195340346	209.78948382079955	3586.9979844671793	408.0360146383479	368.87660607222597	3442.487363833141	487.2354564398619	436.24266844929025	3383.3084680367147	560.2789572505561	455.2903865901922	3405.003531437689	583.6626883659067	476.7505569234187	3379.585737698067	556.2853955341188	-16.017189938902604	3484.152940669084	787.1439007882531	232.9020687012196	3363.9989428343674	753.7170101394246	380.3713281083955	3378.269062553679	594.1569446821503	426.2200839460515	3382.083078289878	495.27376845941217	456.8725768399374	3412.198042573013	503.1417098736112	484.4987562295581	3376.191155356755	550.7662598710812
185	3.083333333333333	464.95202462765764	3608.58048386474	522.9793614731739	873.9449591835215	3674.84634521493	551.5159219321049	1255.032586241157	3755.361250574021	621.125611534274	1317.988523214001	3610.635381968227	556.8700855923773	1312.9540624808262	3673.0607274224863	520.8613464030338	1282.1740277199592	3736.0129667951014	623.0199809265469	475.3427657745631	3496.4579816388177	723.0148211527033	876.750297717295	3535.0606640463775	736.1285798657339	1243.0418263055842	3609.6944164150264	726.3241645244591	1299.9659438690492	3473.933111296892	662.7550321933976	1270.6994063663303	3441.7956106823653	703.1828844802392	1270.2542879649773	3606.571876000714	700.3016769646682	-108.27429295004357	3540.4415906679083	642.7006029235815	-367.4773532792953	3483.277307663081	623.1055203387006	-223.26181393376729	3427.213770686531	584.6378517224761	-32.13088622318316	3622.3650267360263	510.6621934179393	209.45726451858607	3583.2615231087043	407.28451125883	369.28311708882444	3441.859775781119	487.01615312625825	435.03809333095455	3377.4946435938473	559.332565587663	455.5191864627815	3405.0055813849604	583.7082083172563	476.74259473507476	3374.2809538358133	552.0481383616885	-16.077502517348567	3483.1555431377124	786.4284298907597	232.78888108162198	3363.804290238073	753.5147928005516	380.888211802893	3377.3320538797943	593.6946843930656	425.96926278552587	3380.104947706545	494.42910358091706	457.87603589501384	3412.6253282673624	503.42489862529567	485.5993439357809	3376.6357211442855	550.8476773395894
186	3.1	465.395947561725	3607.82623357879	522.6141023867675	870.787194295848	3670.2288265110647	549.064709720352	1258.1979444807223	3759.85268125664	622.6687836750286	1315.9616504645069	3608.2043816321584	553.7176296552435	1314.0779681354109	3675.6951105210346	521.5783442325995	1283.2424500509887	3741.026310380892	624.6864889036048	475.7436543334915	3495.76989902767	722.6444901691386	876.8503891272452	3534.333819362325	735.8138103576828	1243.3214265279507	3609.1332624735996	726.0771454811148	1303.2771784296147	3480.5371190747755	665.3376116703344	1271.4538408103515	3443.282557427122	704.5107006979631	1272.2743607357504	3606.878256895074	700.4903405105538	-108.25437031111818	3540.7784705751246	642.7857218398469	-367.8343197410343	3483.574971813423	623.2597625654593	-224.26657370329843	3422.110859069288	583.6135321681825	-32.17635209796466	3625.0577075234046	510.0874886443316	209.10451957288925	3577.9916844302365	406.2394979595653	369.97372052787125	3441.004884968017	486.69462951230963	433.89937769214157	3370.8963661883795	556.8172560910979	455.5735466162845	3404.9335385419245	583.6894744316011	477.361983222985	3371.929745608958	550.1558751241311	-16.085128193239456	3482.778715149889	786.200568838347	232.7909317977705	3364.0564921827367	753.7573186429108	380.8887333778416	3374.948022514941	592.9375944045768	426.008019494589	3380.329574010655	493.4721666854474	459.14255331997094	3413.3118690473902	503.8800433154084	486.7532079057508	3377.0126012980163	550.8457314641896
187	3.1166666666666667	466.47391705054946	3606.2633323680047	521.8421359772021	866.3053049349	3664.955101808916	545.8932285521277	1259.734620371452	3762.1855446537106	623.4373532664578	1314.0808587178294	3606.4652261853275	551.6226876549233	1313.3403143000958	3675.6956468530716	521.4173517710973	1283.7627997977304	3743.6543930537646	625.5789208119596	476.85963331346744	3494.383609279596	721.8930668635527	877.2631050388865	3533.0932079926265	735.2705915502497	1243.97570616592	3607.7732961925735	725.3232939004718	1307.3182749658395	3488.390304024876	668.613204482842	1272.5966264619472	3445.5332884131767	706.5381996655165	1272.2886911406797	3606.591784330514	700.3642345747534	-108.2377383304726	3541.229303260558	642.9373597739232	-368.27695220269186	3483.4452619583676	623.2373750932571	-224.96589030409896	3418.058922024182	582.7493742330861	-32.132849100331384	3628.6688826482655	510.74834826306056	208.85211714338732	3572.0159407242977	405.0921395803681	370.40136003542955	3440.534730237545	486.5401498759396	433.36763657938735	3366.439671128763	554.3285028382513	455.60623757311805	3404.939344315753	583.6876585519788	478.54967012310897	3374.382723707468	552.2215749122993	-15.913893652592174	3485.2060788554663	788.5326705538583	233.0544106622848	3365.7487884883776	755.4237778950967	380.28619076815255	3370.1301518359073	591.6368394932191	426.1582952585307	3381.4447128915917	492.4133648597171	459.7754854390899	3413.873411983587	504.15472617552655	487.7726508639235	3377.365365593926	550.8410567154442
188	3.1333333333333333	467.9094839186541	3604.3270097294626	520.8810599463491	862.7616006524738	3661.4727447627347	543.8418155197286	1259.2429728662935	3760.3756188563593	622.9628057462573	1313.489443069415	3607.197432192022	552.0479280190395	1312.4625693980179	3675.054528736106	520.9873638739625	1283.207820372336	3741.051664702045	624.8062153958575	478.19827816880354	3492.571685969533	720.9231134108862	877.803041361823	3531.6629804149125	734.6389601077298	1244.8454869722989	3605.9871664657812	724.2782828869028	1309.6874459150918	3491.314416462571	669.8757753202424	1273.1874952271241	3446.6583428818285	707.5675413020567	1270.7988730712855	3605.786814711812	699.8534911386098	-108.1928261824913	3540.920373769309	642.87500106824	-369.2495772622948	3483.0262941526707	623.1190771222069	-224.72979830902364	3416.0004966503275	582.1656386213801	-32.08292493578044	3630.133642442244	511.25204760805764	208.66044923486706	3568.1323357146975	404.4551679202555	370.15319136927025	3440.8472840409877	486.734773758842	432.8466527898448	3364.6776289985883	553.0224052291256	455.6568769861322	3405.0716634727587	583.7522286281529	479.98509934542557	3379.8153629245653	556.7269742045773	-15.648798283137985	3487.9562736598873	792.2215558405587	233.58810668643397	3369.1715303672427	758.7930826419306	379.3822603892625	3364.0154621911006	590.0677892867147	426.27275059794863	3382.219157011078	491.6482599302796	459.2536267909102	3414.0011534080886	504.1916061634579	488.0592405364317	3377.7965767067726	551.1755377213
189	3.15	469.0091505466474	3602.863785256938	520.1516569206025	860.7693730554009	3660.009360183914	543.0487259310667	1257.6795314188175	3756.5142380961547	621.851555446365	1314.1922335805848	3610.360911013823	554.6081126659333	1311.847787234331	3674.5317098540513	520.667311078131	1282.1111727394227	3735.9065236557044	623.2112198603114	478.7021059469822	3490.884306908768	720.0664293832737	878.2369937113154	3530.4516205939126	734.0909755027849	1245.5127849695346	3604.622482987173	723.4648115789086	1309.6884253077412	3487.9919626265487	668.7891929049531	1272.5880305602711	3445.3787157700026	706.4322833390717	1269.0327082066176	3604.970655996881	699.2018363125457	-108.10157540791748	3538.3865625395	642.1677257964203	-370.57477724535914	3482.526767298481	622.9824505248238	-223.39339629204457	3415.008366223797	581.607908971702	-32.08189300406314	3628.3519206621495	510.9780405583911	208.17550865872732	3567.1227593274275	404.435269540118	369.56290124278746	3441.532846789408	487.074115502648	431.78476416549825	3364.291145685821	552.5994151546433	455.7139621442674	3405.228480296135	583.8516260255769	481.09310287446965	3384.6027390385916	560.6483603610434	-15.5013658228554	3486.4306530530403	794.3161424136136	234.07087334769147	3372.3023957728306	761.8663237299866	378.63499863931133	3359.3307580067985	588.9155162699059	426.2962062080362	3382.1792902917264	491.3545953289427	457.8757164634462	3413.577549160207	504.0497278266976	487.2461718181362	3378.8363760748566	552.5521016450983
190	3.1666666666666665	469.4186403806849	3602.2579973668885	519.8449318487457	859.4233097000597	3659.424999722479	542.6619658213513	1255.8533099826132	3753.496673910873	620.8431227894484	1315.2679660891654	3613.070482079326	556.9126779426683	1311.1024164901983	3673.9929226668323	520.4827089964441	1281.544989998752	3732.964320223559	622.2409085631915	477.958171009687	3489.576355628611	719.4694759879661	878.3629415960227	3529.819884682169	733.8090309519184	1245.69986590147	3604.127774169514	723.3160926321339	1308.2655263755366	3482.768596019746	666.8201298115778	1271.4536160495836	3443.0444262399847	704.3313253485536	1267.9531256081718	3604.436836639391	698.8860993923987	-107.98929402872224	3533.230412941433	640.7034336358228	-371.6201705766692	3482.1912104258186	622.9015758919066	-221.67320056964078	3414.160546847881	580.9687970118748	-32.11598772012278	3624.7466831858583	510.1911314749664	207.4906554974732	3567.039319895692	404.46134802868846	369.1649390793169	3441.983212465949	487.2712549260038	430.6922364824679	3364.5474712590944	552.5036794314701	455.77695257938683	3405.322430544728	583.9337416066273	481.5048784730641	3386.5282770056865	562.1757140676555	-15.549995477915173	3480.5242830186126	793.734056714784	234.05590783953937	3372.281973061349	761.832158665719	378.26542711972115	3357.291113832604	588.4556892377814	426.26771784765225	3381.680185021415	491.3455724738149	456.4642790637714	3412.829710079096	503.8116690523581	486.1447340791301	3381.169767122789	555.3294861786155
